<?xml version="1.0" encoding="UTF-8"?>
<svg xmlns="http://www.w3.org/2000/svg" version="1.1" viewBox="0 0 300.4 124.3">
  <defs>
    <style>
      .cls-1 {
        fill: #f0d4c0;
      }
    </style>
  </defs>
  <!-- Generator: Adobe Illustrator 28.6.0, SVG Export Plug-In . SVG Version: 1.2.0 Build 709)  -->
  <g>
    <g id="Layer_1">
      <g>
        <path class="cls-1" d="M3.4,123.2c-2,0-3.6-1.8-3.4-3.8L11.6,4.2c0-1.7,1.3-3,3-3h11.1c1.7,0,3,1.3,3,3l-10,101.7h10.4c1.7,0,3,1.3,3,3v11.3c0,1.7-1.3,3-3,3H3.4Z"/>
        <path class="cls-1" d="M42.9,119.9L54.4,3.9c.2-1.5,1.4-2.7,3-2.7h16.8c1.5,0,2.8,1.2,3,2.7l11.5,116c.2,1.8-1.2,3.3-3,3.3h-10.5c-1.6,0-2.8-1.2-3-2.7l-2.1-23.3h-8.6l-2.3,23.3c-.2,1.5-1.4,2.7-3,2.7h-10.3c-1.8,0-3.2-1.5-3-3.3ZM62.5,81l.2.2h.4c.3-.1.5-.2.9-.2h3.7c.4,0,.7,0,.9,0h.3c0,0,.2,0,.2,0l-.2-.5c0-.1,0-.3,0-.6,0-.3,0-.5,0-.5l-2.4-41.8c-.2-4.6-.3-7.5-.3-8.8h-.6c0,3.5-.1,6.4-.3,8.8l-2.3,41.8c0,.5,0,.9-.2,1.2v.5Z"/>
        <path class="cls-1" d="M115.7,124.2c-5.3,0-9.3-2.1-12.1-6.3-2.8-4.2-4.2-10.1-4.2-17.7V23.8c0-1.6,0-2.9,0-4,0-1,.2-2.5.4-4.3.3-1.8.6-3.3,1.1-4.6.4-1.2,1.1-2.6,2.1-4.1.9-1.5,2.1-2.7,3.4-3.6,1.3-.9,3-1.6,5-2.3C113.4.3,115.7,0,118.3,0h1.5c3.8,0,7,.6,9.6,1.8,2.6,1.2,4.5,2.8,5.8,4.9,1.3,2.1,2.1,4.2,2.6,6.3.5,2.1.8,4.5.8,7.2v22.2c0,1.7-1.3,3-3,3h-10.1c-1.7,0-3-1.3-3-3v-21.5c0-1.1-.3-2-1-2.6-.7-.6-1.4-.9-2.2-.9h-.5c-1.3,0-2.1.6-2.5,1.7-.4,1.1-.6,3.1-.6,6.1v73c0,3.2.2,5.5.6,6.8.4,1.3,1.2,2,2.5,2h.5c2.2,0,3.4-1.4,3.4-4v-33s-1,0-1,0c-1.7,0-3-1.3-3-3v-8.5c0-1.7,1.3-3,3-3h14.2c1.7,0,3,1.3,3,3v61.7c0,1.7-1.3,3-3,3h-4.9c-1.7,0-3-1.3-3-3v-5.2s-.7,0-.7,0c0,.6-.2,1.6-.4,2.8-.4,2.1-1.5,3.8-3.3,4.8-1.8,1.1-4.1,1.6-6.6,1.6h-1.1Z"/>
        <path class="cls-1" d="M170.9,124.3c-2.2,0-4.3-.2-6.1-.7s-3.3-1.1-4.6-2c-1.2-.9-2.3-1.8-3.2-2.8-.9-.9-1.6-2.1-2.2-3.6-.5-1.5-1-2.7-1.3-3.8-.3-1.1-.6-2.4-.7-4-.1-1.6-.2-2.8-.2-3.6,0-.8,0-1.9,0-3.2V4.2c0-1.7,1.3-3,3-3h10.2c1.7,0,3,1.3,3,3v94.3c0,3.2.2,5.4.5,6.6.4,1.2,1.1,1.8,2.3,1.9h.2c1.1,0,1.9-.7,2.2-1.8.3-1.2.5-3.4.5-6.6V4.2c0-1.7,1.3-3,3-3h10.2c1.7,0,3,1.3,3,3v96.4c0,1.6,0,2.8,0,3.8,0,1-.2,2.4-.4,4.2-.2,1.8-.6,3.4-1,4.6-.4,1.2-1.1,2.6-2,4.1-.9,1.5-2,2.7-3.2,3.7s-2.9,1.7-4.9,2.4c-2,.7-4.3,1-6.8,1h-1.5Z"/>
        <path class="cls-1" d="M204.5,120.2V4.2c0-1.7,1.3-3,3-3h12.1c1.5,0,2.8,1.1,3,2.7l5.7,49.5c.7,3.9,1.3,9.4,1.9,16.5l.7-.2c-.4-9.8-.6-15.3-.6-16.3l-1.2-49c0-1.7,1.3-3.1,3-3.1h9.2c1.7,0,3,1.3,3,3v116c0,1.7-1.3,3-3,3h-12.3c-1.5,0-2.8-1.1-3-2.7l-5.9-52.2c-.7-6-1.2-10.6-1.6-13.8h-.7c.6,9.8.9,15.1.9,15.9l1.1,49.6c0,1.7-1.3,3.1-3,3.1h-9.2c-1.7,0-3-1.3-3-3Z"/>
        <path class="cls-1" d="M254.6,119.9l11.4-116c.2-1.5,1.4-2.7,3-2.7h16.8c1.5,0,2.8,1.2,3,2.7l11.5,116c.2,1.8-1.2,3.3-3,3.3h-10.5c-1.6,0-2.8-1.2-3-2.7l-2.1-23.3h-8.6l-2.3,23.3c-.2,1.5-1.4,2.7-3,2.7h-10.3c-1.8,0-3.2-1.5-3-3.3ZM274.2,81l.2.2h.4c.3-.1.5-.2.9-.2h3.7c.4,0,.7,0,.9,0h.3c0,0,.2,0,.2,0l-.2-.5c0-.1,0-.3,0-.6,0-.3,0-.5,0-.5l-2.4-41.8c-.2-4.6-.3-7.5-.3-8.8h-.6c0,3.5-.1,6.4-.3,8.8l-2.3,41.8c0,.5,0,.9-.2,1.2v.5Z"/>
      </g>
    </g>
  </g>
</svg>