<?xml version="1.0" encoding="UTF-8"?>
<svg xmlns="http://www.w3.org/2000/svg" version="1.1" viewBox="0 0 618.1 169">
  <defs>
    <style>
      .cls-1 {
        fill: #f0d4c0;
      }
    </style>
  </defs>
  <!-- Generator: Adobe Illustrator 28.6.0, SVG Export Plug-In . SVG Version: 1.2.0 Build 709)  -->
  <g>
    <g id="laguna_illustration--btn--default">
      <g>
        <path class="cls-1" d="M26.5,1v166.7H0V1h26.5Z"/>
        <path class="cls-1" d="M73.8,145.2v22.6H31.6V1h26.5v144.1h15.7Z"/>
        <path class="cls-1" d="M118.4,145.2v22.6h-42.2V1h26.5v144.1h15.7Z"/>
        <path class="cls-1" d="M178.1,144.7c0,16.4-11.1,24.3-29.3,24.3s-28.6-7.9-28.6-24.3V1h26.5v143.6c0,1.8.7,3.2,2.3,3.2s2.5-1.4,2.5-3.2V1h26.6v143.6Z"/>
        <path class="cls-1" d="M213.6,61.6V23.8c0-1.9-.7-3-2.1-3s-2.3,1-2.3,3v36.3c0,3.7.9,5.6,3.7,7.4l11.5,3.5c10.1,3.3,16.8,8.8,16.8,23.6v47.6c0,17.1-10.9,26.6-29.3,26.6s-28.9-7.9-28.9-22.9v-46.4h26.3v45.2c0,1.8.9,3,2.5,3s2.3-1,2.3-2.6v-44.6c0-3.7-1.2-5.8-4.4-7.4l-8.8-2.8c-13.1-3.4-18.5-10.6-18.5-25.8V25.6c0-16,10.2-25.6,29.5-25.6s28.2,8.1,28.2,22.9v38.6h-26.3Z"/>
        <path class="cls-1" d="M292.6,23.5h-12.2v144.3h-26.5V23.6h-12.2V1.2l50.8-.2v22.4Z"/>
        <path class="cls-1" d="M327.6,167.8l-2.8-61.6h-3v61.6h-26.5V1h32.1c17.5,0,25.9,8.8,25.9,24.2v52.9c0,7.1-1.8,12.2-4.8,15.7l6.4,73.9h-27.4ZM322.8,85.9c2.5,0,3.4-1.8,3.4-6.4V28.9c0-3.5-.9-5.3-3.4-5.3h-1.1v62.3h1.1Z"/>
        <path class="cls-1" d="M388.5,131.4h-5.6l-.7,36.3h-27.3L364,1h43.8l8.8,166.7h-27.4l-.7-36.3ZM388,110.1l-1.2-63.7-.4-19.9h-1.6l-.2,19.9-1.2,63.7h4.6Z"/>
        <path class="cls-1" d="M462.1,23.5h-12.2v144.3h-26.5V23.6h-12.2V1.2l50.8-.2v22.4Z"/>
        <path class="cls-1" d="M491.2,1v166.7h-26.5V1h26.5Z"/>
        <path class="cls-1" d="M554.6,30.3v108.1c0,21.5-9.9,30.5-29.6,30.5s-29.3-9-29.3-30.5V30.3c0-21.3,10.4-30.3,29.5-30.3s29.5,9,29.5,30.3ZM527.4,24.2c0-1.9-.9-3-2.3-3s-2.3.9-2.3,3v120.7c0,2,.9,3,2.3,3s2.3-1.2,2.3-3V24.2Z"/>
        <path class="cls-1" d="M593.4,45.5V1h24.7v166.7h-25.1l-10.2-93.7h-1.4l2.5,48.5v45.2h-24.7V1h25.4l10.1,90.3h1.4l-2.6-45.9Z"/>
      </g>
    </g>
  </g>
</svg>