<?xml version="1.0" encoding="UTF-8"?>
<svg xmlns="http://www.w3.org/2000/svg" version="1.1" viewBox="0 0 325.2 168.1">
  <defs>
    <style>
      .cls-1 {
        fill: #f0d4c0;
      }
    </style>
  </defs>
  <!-- Generator: Adobe Illustrator 28.6.0, SVG Export Plug-In . SVG Version: 1.2.0 Build 709)  -->
  <g>
    <g id="laguna_design--btn--default">
      <g>
        <path class="cls-1" d="M57.5,27.4v113.9c0,17.2-10.5,25.6-26.5,25.6H-.3V1h31.2c16.1,0,26.5,8.4,26.5,26.3ZM30.6,26.5c0-1.6-.5-3-2.5-3h-2.1v120.9h1.9c2.1,0,2.6-1.4,2.6-3V26.5Z"/>
        <path class="cls-1" d="M107.7,144.4v22.5h-45.5V1h45.1v22.5h-18.8v47.2h18.1v21.2h-18.1v52.5h19.1Z"/>
        <path class="cls-1" d="M141.7,61.2V23.7c0-1.9-.7-3-2.1-3s-2.3,1-2.3,3v36.1c0,3.7.9,5.6,3.7,7.4l11.4,3.5c10,3.3,16.7,8.8,16.7,23.5v47.4c0,17-10.9,26.5-29.1,26.5s-28.8-7.9-28.8-22.8v-46.2h26.1v44.9c0,1.8.9,3,2.5,3s2.3-1,2.3-2.6v-44.4c0-3.7-1.2-5.8-4.4-7.4l-8.8-2.8c-13-3.3-18.4-10.5-18.4-25.6V25.4c0-16,10.2-25.4,29.3-25.4s28.1,8.1,28.1,22.8v38.4h-26.1Z"/>
        <path class="cls-1" d="M199.7,1v165.8h-26.3V1h26.3Z"/>
        <path class="cls-1" d="M222,168.1c-10.7,0-17.9-7.7-17.9-25.3V30.2c0-21.2,9.8-30.2,29.7-30.2s27.9,7.9,27.9,24.6v48.4h-26.7V24c0-1.9-.5-3-2.3-3s-2.1,1.1-2.1,3v120.5c0,1.8.9,2.8,2.5,2.8s2.5-1.1,2.5-3.3v-49h-2.3v-17.2h28.4v89h-20l-3-12.3h-1.2c-2.3,9.3-6.1,13.5-15.4,13.5Z"/>
        <path class="cls-1" d="M300.6,45.3V1h24.6v165.8h-24.9l-10.2-93.2h-1.4l2.5,48.3v44.9h-24.6V1h25.3l10,89.8h1.4l-2.6-45.6Z"/>
      </g>
    </g>
  </g>
</svg>