<?xml version="1.0" encoding="UTF-8"?>
<svg xmlns="http://www.w3.org/2000/svg" version="1.1" viewBox="0 0 1738.9 170">
  <defs>
    <style>
      .cls-1 {
        fill: #cb1d1d;
      }
    </style>
  </defs>
  <!-- Generator: Adobe Illustrator 28.6.0, SVG Export Plug-In . SVG Version: 1.2.0 Build 709)  -->
  <g>
    <g id="laguna_my_illustration_projects">
      <g>
        <path class="cls-1" d="M56.5,81.1L62.3,1h46v167.8h-30.7l.2-52,1.8-62.2h-2l-9.2,114.2h-28.8l-8.9-114.4h-2l1.8,62.2v52.2H0V1h46.2l5.9,80.1,1.4,30h1.8l1.2-30Z"/>
        <path class="cls-1" d="M158.6,52.5L163.7,1h34.6l-26.6,127v40.8h-32.5v-40.7L112.6,1h35.3l5.5,51.5,1.6,19.5h2l1.6-19.5Z"/>
        <path class="cls-1" d="M263.2,1v167.8h-32.5V1h32.5Z"/>
        <path class="cls-1" d="M330.3,141.5v27.3h-56.8V1h32.5v140.5h24.3Z"/>
        <path class="cls-1" d="M391.9,141.5v27.3h-56.8V1h32.5v140.5h24.3Z"/>
        <path class="cls-1" d="M470.8,138.1c0,21.7-14.2,32.3-38,32.3s-37.1-10.7-37.1-32.1V1h32.5v136.9c0,4.1,2,6.4,5,6.4s5.1-2.3,5.1-6.4V1h32.5v137.1Z"/>
        <path class="cls-1" d="M523,59.1v-27.9c0-3.7-1.8-5.9-5.2-5.9s-5.1,2.1-5.1,5.3v26.5c0,4.4,1.6,6.6,5.7,8.5l14.9,4.1c14,4.3,23.4,11.4,23.4,30.7v34.8c0,22.2-14.2,35.2-38.4,35.2s-37.8-11-37.8-30.2v-35.5h32.3v33.6c0,3.6,1.8,6.2,5.5,6.2s5.3-2.5,5.3-5.7v-32.5c0-4.8-2.5-7.5-6.9-9.2l-12.3-3.4c-17.2-3.9-24.7-13.3-24.7-32.5v-28.4c0-19.7,12.6-33.2,38.2-33.2s36.9,11.2,36.9,29.8v29.7h-32Z"/>
        <path class="cls-1" d="M628.5,28.3h-18.6v140.5h-32.3V28.3h-18.8V1h69.8v27.3Z"/>
        <path class="cls-1" d="M678.4,168.8l-5.1-58.6h-7.1v58.6h-32.5V1h41.6c23.1,0,34.3,12.1,34.3,32.7v39.4c0,9.9-2.8,17.2-7.3,22.4l9.6,73.3h-33.4ZM669.2,85.4c4.8,0,7.3-3,7.3-10.3v-37.3c0-6.2-2.5-9.4-7.3-9.4h-3v57h3Z"/>
        <path class="cls-1" d="M761.5,135.4h-13.3l-1.8,33.4h-33.6L729,1h52.4l15.5,167.8h-33.6l-1.8-33.4ZM760.3,109.3l-3-57.4-1.4-21.3h-2l-1.2,21.3-3,57.4h10.7Z"/>
        <path class="cls-1" d="M859.9,28.3h-18.6v140.5h-32.3V28.3h-18.8V1h69.8v27.3Z"/>
        <path class="cls-1" d="M897.5,1v167.8h-32.5V1h32.5Z"/>
        <path class="cls-1" d="M983.8,40.1v89.7c0,27.9-13.1,40.7-38.7,40.7s-38.4-12.8-38.4-40.7V40.1c0-27.9,13.7-40.5,38.4-40.5s38.7,12.6,38.7,40.5ZM950.6,32.3c0-4.1-2.1-6.6-5.3-6.6s-5.3,2.3-5.3,6.6v105.5c0,4.1,2.1,6.6,5.3,6.6s5.3-2.5,5.3-6.6V32.3Z"/>
        <path class="cls-1" d="M1039.4,46.1V1h30.7v167.8h-31.3l-15.6-91.6h-1.8l2.3,42.6v49h-30.7V1h32.3l14.9,86.5h1.6l-2.5-41.4Z"/>
        <path class="cls-1" d="M1141.2,120.9v48h-32.5V1h42.1c21.5,0,34.1,13,34.1,35.3v47.4c0,22-13.1,37.1-34.1,37.1h-9.6ZM1151.7,84.3v-46.9c0-6-2.7-9.1-7.1-9.1h-3.4v65h3.4c4.4,0,7.1-3.2,7.1-9.1Z"/>
        <path class="cls-1" d="M1236.5,168.8l-5.1-58.6h-7.1v58.6h-32.5V1h41.6c23.1,0,34.3,12.1,34.3,32.7v39.4c0,9.9-2.8,17.2-7.3,22.4l9.6,73.3h-33.4ZM1227.3,85.4c4.8,0,7.3-3,7.3-10.3v-37.3c0-6.2-2.5-9.4-7.3-9.4h-3v57h3Z"/>
        <path class="cls-1" d="M1352.2,40.1v89.7c0,27.9-13.1,40.7-38.7,40.7s-38.4-12.8-38.4-40.7V40.1c0-27.9,13.7-40.5,38.4-40.5s38.7,12.6,38.7,40.5ZM1318.9,32.3c0-4.1-2.1-6.6-5.3-6.6s-5.3,2.3-5.3,6.6v105.5c0,4.1,2.1,6.6,5.3,6.6s5.3-2.5,5.3-6.6V32.3Z"/>
        <path class="cls-1" d="M1432.8,139.7c0,20.8-14,30.7-37.7,30.7s-36.9-10.7-36.9-32.1v-48.8h32.3v48.5c0,4.6,1.8,6.4,4.8,6.4s5-2,5-6.4V28.3h-28.9V1h61.4v138.7Z"/>
        <path class="cls-1" d="M1504.2,141.5v27.3h-61.1V1h60.6v27.3h-28.1v41.4h26.6v25.9h-26.6v45.8h28.6Z"/>
        <path class="cls-1" d="M1587.1,135.1c0,24.3-13.3,35.3-37.3,35.3s-38.4-12.8-38.4-40.7V40.1c0-27.9,13.3-40.5,38.5-40.5s37.1,10.3,37.1,35.3v42.1h-32.1v-44.8c0-4.1-1.8-6.6-5.2-6.6s-5.2,2.5-5.2,6.6v105.3c0,4.1,2,6.6,5.3,6.6s5-2.5,5-6.6v-49.7h32.1v47.2Z"/>
        <path class="cls-1" d="M1660.3,28.3h-18.6v140.5h-32.3V28.3h-18.8V1h69.8v27.3Z"/>
        <path class="cls-1" d="M1706.4,59.1v-27.9c0-3.7-1.8-5.9-5.1-5.9s-5.2,2.1-5.2,5.3v26.5c0,4.4,1.6,6.6,5.7,8.5l14.9,4.1c14,4.3,23.4,11.4,23.4,30.7v34.8c0,22.2-14.2,35.2-38.4,35.2s-37.8-11-37.8-30.2v-35.5h32.3v33.6c0,3.6,1.8,6.2,5.5,6.2s5.3-2.5,5.3-5.7v-32.5c0-4.8-2.5-7.5-6.9-9.2l-12.3-3.4c-17.2-3.9-24.7-13.3-24.7-32.5v-28.4c0-19.7,12.6-33.2,38.2-33.2s36.9,11.2,36.9,29.8v29.7h-32Z"/>
      </g>
    </g>
  </g>
</svg>