<?xml version="1.0" encoding="UTF-8"?>
<svg id="laguna--logo" xmlns="http://www.w3.org/2000/svg" version="1.1" viewBox="0 0 341 129">
  <defs>
    <style>
      .cls-1 {
        fill: #FFF5E4;
        stroke-width: 0px;
      }
    </style>
  </defs>
  <g id="laguna--logo--text">
    <path class="cls-1" d="M47.9,115.2V16.4c0-1.4,1.1-2.5,2.5-2.5h9.2c1.4,0,2.5,1.1,2.5,2.5v84.4h8.7c1.4,0,2.5,1.1,2.5,2.5v9.4c0,1.4-1.1,2.5-2.5,2.5h-22.9Z"/>
    <path class="cls-1" d="M82.3,112.5l9.5-96.3c.1-1.3,1.2-2.3,2.5-2.3h14c1.3,0,2.4,1,2.5,2.2l9.6,96.3c.2,1.5-1,2.7-2.5,2.7h-8.7c-1.3,0-2.4-1-2.5-2.3l-1.7-19.3h-7.1l-1.9,19.4c-.1,1.3-1.2,2.2-2.5,2.2h-8.6c-1.5,0-2.6-1.3-2.5-2.7h0ZM98.6,80.2h.1c0,.1.3,0,.3,0,.2,0,.5,0,.7,0h3.1c.3,0,.6,0,.8,0h.3c0,0,.2,0,.2,0v-.4c-.1,0-.2-.3-.2-.5,0-.3,0-.4,0-.5l-2-34.7c-.2-3.8-.3-6.3-.3-7.3h-.5c0,2.9,0,5.3-.3,7.3l-1.9,34.7c0,.4,0,.7-.1,1v.4Z"/>
    <path class="cls-1" d="M147.5,116c-2.1,0-4-.5-5.5-1.4-1.5-.9-2.5-2.2-2.8-4-.2-1-.3-1.8-.3-2.3h-.6v4.3c0,1.4-1.1,2.5-2.5,2.5h-4.1c-1.4,0-2.5-1.1-2.5-2.5v-51.2c0-1.4,1.1-2.5,2.5-2.5h11.8c1.4,0,2.5,1.1,2.5,2.5v7c0,1.4-1.1,2.5-2.5,2.5h-.8v27.4c0,2.2.9,3.3,2.8,3.3h.4c1,0,1.7-.6,2-1.7.3-1.1.5-3,.5-5.6v-60.6c0-2.5-.2-4.1-.5-5-.3-.9-1-1.4-2.1-1.4h-.5c-.6,0-1.3.2-1.8.7-.6.5-.8,1.2-.8,2.2v17.9c0,1.4-1.1,2.5-2.5,2.5h-8.4c-1.4,0-2.5-1.1-2.5-2.5v-18.4c0-2.2.3-4.3.7-6,.4-1.8,1.1-3.5,2.2-5.3,1-1.8,2.6-3.1,4.8-4.1,2.2-1,4.8-1.5,8-1.5h1.2c2.2,0,4.1.3,5.8.8,1.7.5,3.1,1.1,4.2,1.9,1.1.7,2,1.7,2.8,3s1.4,2.4,1.7,3.4c.4,1,.7,2.3.9,3.8.2,1.5.3,2.7.4,3.6,0,.9,0,2,0,3.3v63.5c0,6.4-1.2,11.3-3.5,14.7-2.3,3.5-5.7,5.2-10.1,5.2h-.9,0Z"/>
    <path class="cls-1" d="M188.7,116.1c-1.9,0-3.5-.2-5-.5-1.5-.4-2.8-.9-3.8-1.7-1-.8-1.9-1.5-2.7-2.3-.8-.8-1.4-1.8-1.8-3-.5-1.2-.8-2.3-1.1-3.1-.3-.9-.5-2-.6-3.3-.1-1.3-.2-2.3-.2-3,0-.7,0-1.6,0-2.7V16.4c0-1.4,1.1-2.5,2.5-2.5h8.5c1.4,0,2.5,1.1,2.5,2.5v78.3c0,2.6.1,4.5.5,5.4.3,1,.9,1.5,1.9,1.6h.1c1,0,1.6-.5,1.9-1.5.3-1,.4-2.8.4-5.5V16.4c0-1.4,1.1-2.5,2.5-2.5h8.5c1.4,0,2.5,1.1,2.5,2.5v80c0,1.3,0,2.3,0,3.1,0,.8-.1,2-.3,3.5-.2,1.5-.5,2.8-.8,3.8-.4,1-.9,2.2-1.7,3.4-.8,1.3-1.7,2.3-2.7,3-1,.8-2.4,1.4-4.1,2-1.7.5-3.5.8-5.6.8h-1.3Z"/>
    <path class="cls-1" d="M216.7,112.7V16.4c0-1.4,1.1-2.5,2.5-2.5h10c1.3,0,2.3.9,2.5,2.2l4.7,41.1c.6,3.2,1.1,7.8,1.6,13.7h.6c-.3-8.3-.5-12.8-.5-13.7l-1-40.7c0-1.4,1.1-2.5,2.5-2.5h7.7c1.4,0,2.5,1.1,2.5,2.5v96.3c0,1.4-1.1,2.5-2.5,2.5h-10.2c-1.3,0-2.3-.9-2.5-2.2l-4.9-43.3c-.6-5-1-8.8-1.3-11.4h-.6c.5,8.2.7,12.5.7,13.2l.9,41.2c0,1.4-1.1,2.5-2.5,2.5h-7.7c-1.4,0-2.5-1.1-2.5-2.5h0Z"/>
    <path class="cls-1" d="M258.4,112.5l9.5-96.3c.1-1.3,1.2-2.3,2.5-2.3h14c1.3,0,2.4,1,2.5,2.2l9.6,96.3c.2,1.5-1,2.7-2.5,2.7h-8.7c-1.3,0-2.4-1-2.5-2.3l-1.7-19.3h-7.1l-1.9,19.4c-.1,1.3-1.2,2.2-2.5,2.2h-8.6c-1.5,0-2.6-1.3-2.5-2.7h0ZM274.7,80.2h.1c0,.1.3,0,.3,0,.2,0,.5,0,.7,0h3.1c.3,0,.6,0,.8,0h.3c0,0,.2,0,.2,0v-.4c-.1,0-.2-.3-.2-.5,0-.3,0-.4,0-.5l-2-34.7c-.2-3.8-.3-6.3-.3-7.3h-.5c0,2.9,0,5.3-.3,7.3l-1.9,34.7c0,.4,0,.7-.1,1v.4Z"/>
  </g>
  <g id="laguna--logo--moon">
    <path class="cls-1" d="M341,15.8c-13.6,11.8-22.2,29.2-22.2,48.7s8.6,36.8,22.2,48.7V15.8Z"/>
    <path class="cls-1" d="M0,15.8c13.6,11.8,22.2,29.2,22.2,48.7,0,19.4-8.6,36.8-22.2,48.7V15.8Z"/>
  </g>
</svg>