<?xml version="1.0" encoding="UTF-8"?>
<svg id="Layer_1" data-name="Layer 1" xmlns="http://www.w3.org/2000/svg" version="1.1" viewBox="0 0 36 31">
  <defs>
    <style>
      .cls-1 {
        fill: #FFF5E4;
        stroke-width: 0px;
      }
    </style>
  </defs>
  <g>
    <path class="cls-1" d="M11.3,30c-2,0-4-.8-5.5-2.3-3.1-3.1-3.1-8,0-11.1l4.4-4.4,2.2,2.2-4.4,4.4c-1.8,1.8-1.8,4.8,0,6.7,1.8,1.8,4.8,1.8,6.7,0l4.4-4.4,2.2,2.2-4.4,4.4c-1.5,1.5-3.5,2.3-5.5,2.3Z"/>
    <path class="cls-1" d="M25.8,18.8l-2.2-2.2,4.4-4.4c.9-.9,1.4-2.1,1.4-3.3s-.5-2.4-1.4-3.3c-1.8-1.8-4.9-1.8-6.7,0l-4.4,4.4-2.2-2.2,4.4-4.4c3-3,8.1-3,11.1,0,1.5,1.5,2.3,3.4,2.3,5.5s-.8,4.1-2.3,5.5l-4.4,4.4Z"/>
  </g>
  <rect class="cls-1" x="10.2" y="13.9" width="15.7" height="3.1" transform="translate(-5.7 17.3) rotate(-45)"/>
</svg>